<svg xmlns="http://www.w3.org/2000/svg" viewBox="0 0 720 360" role="img" aria-label="Animated Conway's Game of Life grid">
  <defs>
    <linearGradient id="bg" x1="0" y1="0" x2="1" y2="1">
      <stop offset="0" stop-color="#080d18"/>
      <stop offset="0.55" stop-color="#101522"/>
      <stop offset="1" stop-color="#07131f"/>
    </linearGradient>
    <pattern id="grid" width="20" height="20" patternUnits="userSpaceOnUse">
      <path d="M20 0H0V20" fill="none" stroke="#203047" stroke-width="1"/>
    </pattern>
    <filter id="glow" x="-30%" y="-30%" width="160%" height="160%">
      <feGaussianBlur stdDeviation="2.5" result="blur"/>
      <feMerge>
        <feMergeNode in="blur"/>
        <feMergeNode in="SourceGraphic"/>
      </feMerge>
    </filter>
    <style>
      .frame { opacity: 0; animation-duration: 6.4s; animation-timing-function: steps(1, end); animation-iteration-count: infinite; }
      .f0 { animation-name: f0; }
      .f1 { animation-name: f1; }
      .f2 { animation-name: f2; }
      .f3 { animation-name: f3; }
      .f4 { animation-name: f4; }
      .f5 { animation-name: f5; }
      .f6 { animation-name: f6; }
      .f7 { animation-name: f7; }
      @keyframes f0 { 0%, 12.49% { opacity: 1; } 12.5%, 100% { opacity: 0; } }
      @keyframes f1 { 0%, 12.49% { opacity: 0; } 12.5%, 24.99% { opacity: 1; } 25%, 100% { opacity: 0; } }
      @keyframes f2 { 0%, 24.99% { opacity: 0; } 25%, 37.49% { opacity: 1; } 37.5%, 100% { opacity: 0; } }
      @keyframes f3 { 0%, 37.49% { opacity: 0; } 37.5%, 49.99% { opacity: 1; } 50%, 100% { opacity: 0; } }
      @keyframes f4 { 0%, 49.99% { opacity: 0; } 50%, 62.49% { opacity: 1; } 62.5%, 100% { opacity: 0; } }
      @keyframes f5 { 0%, 62.49% { opacity: 0; } 62.5%, 74.99% { opacity: 1; } 75%, 100% { opacity: 0; } }
      @keyframes f6 { 0%, 74.99% { opacity: 0; } 75%, 87.49% { opacity: 1; } 87.5%, 100% { opacity: 0; } }
      @keyframes f7 { 0%, 87.49% { opacity: 0; } 87.5%, 100% { opacity: 1; } }
    </style>
  </defs>

  <rect width="720" height="360" rx="18" fill="url(#bg)"/>
  <rect x="20" y="30" width="680" height="320" rx="10" fill="url(#grid)" opacity="0.95"/>
  <path d="M20 30H700V350H20Z" fill="none" stroke="#31445f" stroke-width="1"/>
  <path d="M20 30H700" stroke="#6ee7b7" stroke-width="1.5" opacity="0.55"/>

  <g fill="#5eead4" filter="url(#glow)">
    <path class="frame f0" d="M44 114h14v14h-14zM64 74h14v14h-14zM64 114h14v14h-14zM84 94h14v14h-14zM84 114h14v14h-14zM144 234h14v14h-14zM164 234h14v14h-14zM184 234h14v14h-14zM224 274h14v14h-14zM244 274h14v14h-14zM264 94h14v14h-14zM264 274h14v14h-14zM284 94h14v14h-14zM284 274h14v14h-14zM304 94h14v14h-14zM404 254h14v14h-14zM424 214h14v14h-14zM424 254h14v14h-14zM444 234h14v14h-14zM444 254h14v14h-14zM504 74h14v14h-14zM504 94h14v14h-14zM524 74h14v14h-14zM524 94h14v14h-14zM604 194h14v14h-14zM624 174h14v14h-14zM624 194h14v14h-14zM644 194h14v14h-14z"/>
    <path class="frame f1" d="M44 94h14v14h-14zM64 114h14v14h-14zM64 134h14v14h-14zM84 94h14v14h-14zM84 114h14v14h-14zM164 214h14v14h-14zM164 234h14v14h-14zM164 254h14v14h-14zM244 254h14v14h-14zM244 274h14v14h-14zM244 294h14v14h-14zM264 254h14v14h-14zM264 274h14v14h-14zM264 294h14v14h-14zM284 74h14v14h-14zM284 94h14v14h-14zM284 114h14v14h-14zM404 234h14v14h-14zM424 254h14v14h-14zM424 274h14v14h-14zM444 234h14v14h-14zM444 254h14v14h-14zM504 74h14v14h-14zM504 94h14v14h-14zM524 74h14v14h-14zM524 94h14v14h-14zM604 174h14v14h-14zM604 194h14v14h-14zM624 174h14v14h-14zM624 194h14v14h-14zM624 214h14v14h-14zM644 174h14v14h-14zM644 194h14v14h-14z"/>
    <path class="frame f2" d="M44 114h14v14h-14zM64 134h14v14h-14zM84 94h14v14h-14zM84 114h14v14h-14zM84 134h14v14h-14zM144 234h14v14h-14zM164 234h14v14h-14zM184 234h14v14h-14zM224 274h14v14h-14zM244 254h14v14h-14zM244 294h14v14h-14zM264 94h14v14h-14zM264 254h14v14h-14zM264 294h14v14h-14zM284 94h14v14h-14zM284 274h14v14h-14zM304 94h14v14h-14zM404 254h14v14h-14zM424 274h14v14h-14zM444 234h14v14h-14zM444 254h14v14h-14zM444 274h14v14h-14zM504 74h14v14h-14zM504 94h14v14h-14zM524 74h14v14h-14zM524 94h14v14h-14zM604 174h14v14h-14zM604 214h14v14h-14zM624 154h14v14h-14zM624 214h14v14h-14zM644 174h14v14h-14zM644 214h14v14h-14z"/>
    <path class="frame f3" d="M64 94h14v14h-14zM64 134h14v14h-14zM84 114h14v14h-14zM84 134h14v14h-14zM104 114h14v14h-14zM164 214h14v14h-14zM164 234h14v14h-14zM164 254h14v14h-14zM224 274h14v14h-14zM244 254h14v14h-14zM244 294h14v14h-14zM264 254h14v14h-14zM264 294h14v14h-14zM284 74h14v14h-14zM284 94h14v14h-14zM284 114h14v14h-14zM284 274h14v14h-14zM424 234h14v14h-14zM424 274h14v14h-14zM444 254h14v14h-14zM444 274h14v14h-14zM464 254h14v14h-14zM504 74h14v14h-14zM504 94h14v14h-14zM524 74h14v14h-14zM524 94h14v14h-14zM604 194h14v14h-14zM624 154h14v14h-14zM624 174h14v14h-14zM624 214h14v14h-14zM624 234h14v14h-14zM644 194h14v14h-14z"/>
    <path class="frame f4" d="M64 134h14v14h-14zM84 94h14v14h-14zM84 134h14v14h-14zM104 114h14v14h-14zM104 134h14v14h-14zM144 234h14v14h-14zM164 234h14v14h-14zM184 234h14v14h-14zM224 274h14v14h-14zM244 254h14v14h-14zM244 294h14v14h-14zM264 94h14v14h-14zM264 254h14v14h-14zM264 294h14v14h-14zM284 94h14v14h-14zM284 274h14v14h-14zM304 94h14v14h-14zM424 274h14v14h-14zM444 234h14v14h-14zM444 274h14v14h-14zM464 254h14v14h-14zM464 274h14v14h-14zM504 74h14v14h-14zM504 94h14v14h-14zM524 74h14v14h-14zM524 94h14v14h-14zM604 174h14v14h-14zM604 194h14v14h-14zM604 214h14v14h-14zM624 174h14v14h-14zM624 214h14v14h-14zM644 174h14v14h-14zM644 194h14v14h-14zM644 214h14v14h-14z"/>
    <path class="frame f5" d="M64 114h14v14h-14zM84 134h14v14h-14zM84 154h14v14h-14zM104 114h14v14h-14zM104 134h14v14h-14zM164 214h14v14h-14zM164 234h14v14h-14zM164 254h14v14h-14zM224 274h14v14h-14zM244 254h14v14h-14zM244 294h14v14h-14zM264 254h14v14h-14zM264 294h14v14h-14zM284 74h14v14h-14zM284 94h14v14h-14zM284 114h14v14h-14zM284 274h14v14h-14zM424 254h14v14h-14zM444 274h14v14h-14zM444 294h14v14h-14zM464 254h14v14h-14zM464 274h14v14h-14zM504 74h14v14h-14zM504 94h14v14h-14zM524 74h14v14h-14zM524 94h14v14h-14zM584 194h14v14h-14zM604 174h14v14h-14zM604 214h14v14h-14zM624 154h14v14h-14zM624 234h14v14h-14zM644 174h14v14h-14zM644 214h14v14h-14zM664 194h14v14h-14z"/>
    <path class="frame f6" d="M64 134h14v14h-14zM84 154h14v14h-14zM104 114h14v14h-14zM104 134h14v14h-14zM104 154h14v14h-14zM144 234h14v14h-14zM164 234h14v14h-14zM184 234h14v14h-14zM224 274h14v14h-14zM244 254h14v14h-14zM244 294h14v14h-14zM264 94h14v14h-14zM264 254h14v14h-14zM264 294h14v14h-14zM284 94h14v14h-14zM284 274h14v14h-14zM304 94h14v14h-14zM424 274h14v14h-14zM444 294h14v14h-14zM464 254h14v14h-14zM464 274h14v14h-14zM464 294h14v14h-14zM504 74h14v14h-14zM504 94h14v14h-14zM524 74h14v14h-14zM524 94h14v14h-14zM584 194h14v14h-14zM604 174h14v14h-14zM604 194h14v14h-14zM604 214h14v14h-14zM624 154h14v14h-14zM624 174h14v14h-14zM624 214h14v14h-14zM624 234h14v14h-14zM644 174h14v14h-14zM644 194h14v14h-14zM644 214h14v14h-14zM664 194h14v14h-14z"/>
    <path class="frame f7" d="M84 114h14v14h-14zM84 154h14v14h-14zM104 134h14v14h-14zM104 154h14v14h-14zM124 134h14v14h-14zM164 214h14v14h-14zM164 234h14v14h-14zM164 254h14v14h-14zM224 274h14v14h-14zM244 254h14v14h-14zM244 294h14v14h-14zM264 254h14v14h-14zM264 294h14v14h-14zM284 74h14v14h-14zM284 94h14v14h-14zM284 114h14v14h-14zM284 274h14v14h-14zM444 254h14v14h-14zM444 294h14v14h-14zM464 274h14v14h-14zM464 294h14v14h-14zM484 274h14v14h-14zM504 74h14v14h-14zM504 94h14v14h-14zM524 74h14v14h-14zM524 94h14v14h-14zM584 174h14v14h-14zM584 194h14v14h-14zM584 214h14v14h-14zM604 154h14v14h-14zM604 234h14v14h-14zM624 154h14v14h-14zM624 234h14v14h-14zM644 154h14v14h-14zM644 234h14v14h-14zM664 174h14v14h-14zM664 194h14v14h-14zM664 214h14v14h-14z"/>
  </g>
</svg>
