<?xml version="1.0" encoding="UTF-8"?>
<svg xmlns="http://www.w3.org/2000/svg" width="1200" height="620" viewBox="0 0 1200 620" role="img" aria-labelledby="title desc">
  <title id="title">Alexandre Edmond - AI Engineer profile</title>
  <desc id="desc">Terminal-style profile card with an ASCII robot, engineering focus, and GitHub statistics.</desc>
  <style>
.mono { font-family: ui-monospace, SFMono-Regular, Menlo, Monaco, Consolas, 'Liberation Mono', monospace; }
    .muted { fill: #86909c; }
    .label { fill: #79c7ff; }
    .value { fill: #e6edf3; }
    .accent { fill: #ff9d4d; }
    .green { fill: #7ee787; }
    .violet { fill: #c297ff; }
    .leader { stroke: #4b5563; stroke-width: 1; stroke-dasharray: 2 5; }
  </style>
  <rect x="10" y="10" width="1180" height="600" rx="14" fill="#0d1117" stroke="#30363d" stroke-width="2"/>
  <rect x="11" y="11" width="1178" height="44" rx="13" fill="#161b22"/>
  <path d="M11 42V55H1189V42" fill="#161b22"/>
  <circle cx="34" cy="33" r="6" fill="#ff7b72"/>
  <circle cx="54" cy="33" r="6" fill="#d29922"/>
  <circle cx="74" cy="33" r="6" fill="#3fb950"/>
  <text x="600" y="38" text-anchor="middle" class="mono muted" font-size="13">alexandre@github: ~</text>
  <line x1="365" y1="76" x2="365" y2="414" stroke="#30363d"/>
  <text x="395" y="88" class="mono accent" font-size="24" font-weight="700">Alexandre Edmond</text>
  <text x="395" y="110" class="mono violet" font-size="14">@AlexandreEDMOND</text>
  <text x="45" y="135" class="mono green" font-size="16">       .--------.</text>
  <text x="45" y="161" class="mono green" font-size="16">      /  o    o  \</text>
  <text x="45" y="187" class="mono green" font-size="16">     |     __     |</text>
  <text x="45" y="213" class="mono green" font-size="16">     |   .----.   |</text>
  <text x="45" y="239" class="mono green" font-size="16"> .---|   | AE |   |---.</text>
  <text x="45" y="265" class="mono green" font-size="16">/    |   &#x27;----&#x27;   |    \</text>
  <text x="45" y="291" class="mono green" font-size="16">\___/------------\___/</text>
  <text x="45" y="317" class="mono green" font-size="16">     /_|________|_\</text>
  <text x="45" y="343" class="mono green" font-size="16">      _/ /    \ \_</text>
  <text x="45" y="369" class="mono green" font-size="16">     /__/      \__\</text>
  <text x="395" y="143" class="mono label" font-size="14">Title</text>
  <line x1="570" y1="139" x2="600" y2="139" class="leader"/>
  <text x="610" y="143" class="mono value" font-size="13.5">AI Engineer | Robot Learning | Embodied AI</text>
  <text x="395" y="170" class="mono label" font-size="14">Location</text>
  <line x1="570" y1="166" x2="600" y2="166" class="leader"/>
  <text x="610" y="170" class="mono value" font-size="13.5">Paris, France</text>
  <text x="395" y="197" class="mono label" font-size="14">Languages.Programming</text>
  <line x1="570" y1="193" x2="600" y2="193" class="leader"/>
  <text x="610" y="197" class="mono value" font-size="13.5">Python, C++, SQL, Bash, JavaScript</text>
  <text x="395" y="224" class="mono label" font-size="14">Languages.AI</text>
  <line x1="570" y1="220" x2="600" y2="220" class="leader"/>
  <text x="610" y="224" class="mono value" font-size="13.5">PyTorch, Transformers, OpenCV, NumPy</text>
  <text x="395" y="251" class="mono label" font-size="14">AI.Interests</text>
  <line x1="570" y1="247" x2="600" y2="247" class="leader"/>
  <text x="610" y="251" class="mono value" font-size="13.5">Robot Learning, Reinforcement Learning, Computer Vision, LLM Agents</text>
  <text x="395" y="278" class="mono label" font-size="14">Engineering</text>
  <line x1="570" y1="274" x2="600" y2="274" class="leader"/>
  <text x="610" y="278" class="mono value" font-size="13.5">MLOps, FastAPI, Docker, GitHub Actions</text>
  <text x="395" y="305" class="mono label" font-size="14">Robotics</text>
  <line x1="570" y1="301" x2="600" y2="301" class="leader"/>
  <text x="610" y="305" class="mono value" font-size="13.5">Pepper, EMG Interfaces, ManiSkill, DIY Robotics</text>
  <text x="395" y="332" class="mono label" font-size="14">Current.Work</text>
  <line x1="570" y1="328" x2="600" y2="328" class="leader"/>
  <text x="610" y="332" class="mono value" font-size="13.5">Imitation Learning, Embodied AI, Open-Source ML</text>
  <text x="395" y="359" class="mono label" font-size="14">Current.Project</text>
  <line x1="570" y1="355" x2="600" y2="355" class="leader"/>
  <text x="610" y="359" class="mono value" font-size="13.5">ManiSkill Imitation Learning Lab</text>
  <text x="395" y="386" class="mono label" font-size="14">Languages.Real</text>
  <line x1="570" y1="382" x2="600" y2="382" class="leader"/>
  <text x="610" y="386" class="mono value" font-size="13.5">French, English</text>
  <line x1="35" y1="431" x2="1165" y2="431" stroke="#30363d"/>
  <text x="40" y="463" class="mono green" font-size="16" font-weight="700">GitHub Stats</text>
  <rect x="40" y="480" width="210" height="100" rx="6" fill="#161b22" stroke="#30363d"/>
  <text x="55" y="509" class="mono muted" font-size="13">Public repos</text>
  <text x="55" y="553" class="mono accent" font-size="30" font-weight="700">14</text>
  <rect x="265" y="480" width="210" height="100" rx="6" fill="#161b22" stroke="#30363d"/>
  <text x="280" y="509" class="mono muted" font-size="13">Stars received</text>
  <text x="280" y="553" class="mono accent" font-size="30" font-weight="700">3</text>
  <rect x="490" y="480" width="210" height="100" rx="6" fill="#161b22" stroke="#30363d"/>
  <text x="505" y="509" class="mono muted" font-size="13">Followers</text>
  <text x="505" y="553" class="mono accent" font-size="30" font-weight="700">9</text>
  <rect x="715" y="480" width="210" height="100" rx="6" fill="#161b22" stroke="#30363d"/>
  <text x="730" y="509" class="mono muted" font-size="13">Contributions / 12 mo</text>
  <text x="730" y="553" class="mono accent" font-size="25" font-weight="700">Unavailable</text>
  <rect x="940" y="480" width="210" height="100" rx="6" fill="#161b22" stroke="#30363d"/>
  <text x="955" y="509" class="mono muted" font-size="13">Commits / 12 mo</text>
  <text x="955" y="553" class="mono accent" font-size="25" font-weight="700">Unavailable</text>
</svg>
